<svg xmlns="http://www.w3.org/2000/svg" viewBox="0 0 100 100">
  <path d="M 5,65 L 35,65 L 35,75 C 35,78 37,80 40,80 L 60,80 C 63,80 65,78 65,75 L 65,65 L 95,65 C 98,65 100,67 100,70 L 100,95 C 100,98 98,100 95,100 L 5,100 C 2,100 0,98 0,95 L 0,70 C 0,67 2,65 5,65 Z" fill="#d3d3d3" />
  <rect x="75" y="82" width="8" height="8" rx="2" fill="#ffffff" />
  <rect x="87" y="82" width="8" height="8" rx="2" fill="#ffffff" />
  <path d="M 50,5 L 20,35 C 18,37 19,40 22,40 L 38,40 L 38,72 C 38,74 40,76 42,76 L 58,76 C 60,76 62,74 62,72 L 62,40 L 78,40 C 81,40 82,37 80,35 Z" fill="#d3d3d3" />
</svg>
